<svg xmlns="http://www.w3.org/2000/svg" xmlns:xlink="http://www.w3.org/1999/xlink" fill="none" version="1.1" width="1240.0029296875" height="922.7806396484375" viewBox="0 0 1240.0029296875 922.7806396484375"><g><g><path d="M4.33125,710.37893C6.72332,710.37893,8.66247,708.50325,8.66247,706.18946C8.66247,703.87568,6.72332,702,4.33125,702C1.93918,702,0,703.87568,0,706.18946C0,708.50325,1.93918,710.37893,4.33125,710.37893C4.33125,710.37893,4.33125,710.37893,4.33125,710.37893Z" fill="#4F5B62" fill-opacity="1"/></g><g><path d="M12.855605234375,731.725528828125C15.171745234374999,731.725528828125,17.049375234375,729.909388828125,17.049375234375,727.669038828125C17.049375234375,725.428698828125,15.171745234374999,723.612548828125,12.855605234375,723.612548828125C10.539465234375,723.612548828125,8.661865234375,725.428698828125,8.661865234375,727.669038828125C8.661865234375,729.909388828125,10.539465234375,731.725528828125,12.855605234375,731.725528828125C12.855605234375,731.725528828125,12.855605234375,731.725528828125,12.855605234375,731.725528828125Z" fill="#0078D4" fill-opacity="1"/></g><g><path d="M7.8375,844.7754033203125C12.166,844.7754033203125,15.675,841.3813033203126,15.675,837.1944033203125C15.675,833.0075433203125,12.166,829.6134033203125,7.8375,829.6134033203125C3.50898,829.6134033203125,0,833.0075433203125,0,837.1944033203125C0,841.3813033203126,3.50898,844.7754033203125,7.8375,844.7754033203125C7.8375,844.7754033203125,7.8375,844.7754033203125,7.8375,844.7754033203125Z" fill="#0078D4" fill-opacity="1"/></g><g><path d="M52.3,486.38388C54.122550000000004,486.38388,55.60001,484.9548,55.60001,483.19194C55.60001,481.42908,54.122550000000004,480,52.3,480C50.47747,480,49,481.42908,49,483.19194C49,484.9548,50.47747,486.38388,52.3,486.38388C52.3,486.38388,52.3,486.38388,52.3,486.38388Z" fill="#0078D4" fill-opacity="1"/></g><g><path d="M958.731504140625,843.556C963.743494140625,843.556,967.806494140625,839.6259,967.806494140625,834.77793C967.806494140625,829.92999,963.743494140625,826,958.731504140625,826C953.719544140625,826,949.656494140625,829.92999,949.656494140625,834.77793C949.656494140625,839.6259,953.719544140625,843.556,958.731504140625,843.556C958.731504140625,843.556,958.731504140625,843.556,958.731504140625,843.556Z" fill="#4F5B62" fill-opacity="1"/></g><g><path d="M947.24996,865.500771484375C951.8062,865.500771484375,955.4999,861.927971484375,955.4999,857.520751484375C955.4999,853.113531484375,951.8062,849.540771484375,947.24996,849.540771484375C942.69363,849.540771484375,939,853.113531484375,939,857.520751484375C939,861.927971484375,942.69363,865.500771484375,947.24996,865.500771484375C947.24996,865.500771484375,947.24996,865.500771484375,947.24996,865.500771484375Z" fill="#0078D4" fill-opacity="1"/></g><g transform="matrix(-1,0,0,-1,2464.74169921875,475.561767578125)"><path d="M1236.227489609375,270.5601837890625C1233.339982609375,270.1611837890625,1234.439979609375,267.1020837890625,1235.746229609375,265.9050837890625C1236.708729609375,265.0406837890625,1238.014999609375,264.5086837890625,1239.252499609375,263.9100837890625C1240.764999609375,263.1786837890625,1242.277499609375,262.3141837890625,1243.377449609375,261.0506837890625C1246.333649609375,257.4596837890625,1242.071249609375,252.6715837890625,1246.196149609375,249.8121837890625C1250.321149609375,247.0191837890625,1261.390049609375,245.7556537890625,1258.158849609375,238.3076417890625C1257.677549609375,237.1106407890625,1255.890049609375,238.1746417890625,1256.371149609375,239.3051437890625C1258.708849609375,244.6916437890625,1247.365049609375,246.2876637890625,1244.477449609375,248.5486837890625C1243.446249609375,249.3466837890625,1242.552449609375,250.4106837890625,1242.139999609375,251.6741837890625C1241.314999609375,254.4671837890625,1243.721249609375,257.3266837890625,1241.589999609375,259.9866837890625C1239.114999609375,262.9126837890625,1233.821229609375,262.9126837890625,1232.583730609375,267.0356837890625C1231.827479609375,269.3631837890625,1233.133735609375,272.1561837890625,1235.746229609375,272.5551837890625C1236.983729609375,272.6881837890625,1237.533729609375,270.7596837890625,1236.227489609375,270.5601837890625C1236.227489609375,270.5601837890625,1236.227489609375,270.5601837890625,1236.227489609375,270.5601837890625Z" fill="#4F5B62" fill-opacity="1"/></g><g transform="matrix(-1,0,0,-1,2480.005859375,507.4500732421875)"><g><g><path d="M1243.2286496875,292.0197366210937C1241.6473996875,289.6257366210938,1241.6473996875,286.69983662109377,1243.2286496875,284.23923662109377C1244.8098996875,281.84523662109376,1247.0098996875,281.77873662109374,1249.5536696875,280.84773662109376C1253.0599296875,279.45133662109373,1253.1287296875,275.92683662109374,1252.9224296875,272.73483662109373C1252.8537296875,271.60433662109375,1252.7849296875,270.40733662109375,1253.1287296875,269.27673662109373C1254.0224296875,266.61683662109374,1256.3599296875,267.34823662109375,1258.4912296875,267.68073662109373C1259.7287296875,267.88033662109376,1260.8974296875,267.68073662109373,1261.9287296875,267.01573662109377C1263.2349296875,266.15123662109374,1264.0598296875,264.62183662109373,1264.4723296875,263.15879662109376C1264.8162296875,261.96179662109375,1264.8849296875,260.69830662109376,1265.1599296875,259.50130662109376C1265.2974296875,258.63680662109374,1265.5724296875,257.83882662109374,1265.9849296875,257.10732662109376C1267.0849296875,255.44482662109374,1268.3912296875,255.31182662109376,1269.9724296875,256.7748266210937C1270.3162296875,258.03832662109374,1272.3099296875,257.50632662109376,1271.9662296875,256.2428366210938C1270.7287296875,251.92034662109376,1265.2287296875,253.84884162109375,1263.8537296875,256.90782662109376C1263.2349296875,258.30432662109376,1263.1662296875,259.8338166210938,1262.8224296875,261.29680662109376C1262.6162296875,262.16130662109373,1262.4787296875,263.09231662109374,1261.9974296875,263.89033662109375C1260.9662296875,265.6857366210937,1259.0412296875,265.35323662109374,1257.2537296875,265.1538366210938C1255.1224296875,264.9543366210938,1253.4724296875,264.75473662109374,1252.0974296875,266.68333662109376C1250.5161296875,268.87773662109373,1250.9286296875,271.47133662109377,1250.9286296875,273.99833662109376C1250.9974296875,277.05723662109375,1250.3099296875,278.2543366210937,1247.2161696875,279.25173662109376C1245.9786696875,279.65073662109376,1244.9474196875,279.85023662109376,1243.8474196875,280.64823662109376C1239.8599126875,283.37473662109375,1238.8286596875,289.0272366210937,1241.4411696875,292.95073662109377C1242.1286696875,294.08123662109375,1243.9161496875,293.0838366210937,1243.2286496875,292.0197366210937C1243.2286496875,292.0197366210937,1243.2286496875,292.0197366210937,1243.2286496875,292.0197366210937Z" fill="#4F5B62" fill-opacity="1"/></g></g></g><g transform="matrix(0.5862203240394592,-0.8101516962051392,0.8101516962051392,0.5862203240394592,413.4528304460655,838.9202652164731)"><path d="M1037.07501,32.26025415039062C1042.087,32.26025415039062,1046.15,28.330154150390626,1046.15,23.482184150390623C1046.15,18.634244150390625,1042.087,14.704254150390625,1037.07501,14.704254150390625C1032.06305,14.704254150390625,1028,18.634244150390625,1028,23.482184150390623C1028,28.330154150390626,1032.06305,32.26025415039062,1037.07501,32.26025415039062C1037.07501,32.26025415039062,1037.07501,32.26025415039062,1037.07501,32.26025415039062Z" fill="#4F5B62" fill-opacity="1"/></g><g transform="matrix(0.5862203240394592,-0.8101516962051392,0.8101516962051392,0.5862203240394592,400.5847185167768,858.5925907327382)"><path d="M1049.074422890625,53.097847900390626C1053.630662890625,53.097847900390626,1057.324362890625,49.525047900390625,1057.324362890625,45.11782790039062C1057.324362890625,40.71060790039063,1053.630662890625,37.137847900390625,1049.074422890625,37.137847900390625C1044.518092890625,37.137847900390625,1040.824462890625,40.71060790039063,1040.824462890625,45.11782790039062C1040.824462890625,49.525047900390625,1044.518092890625,53.097847900390626,1049.074422890625,53.097847900390626C1049.074422890625,53.097847900390626,1049.074422890625,53.097847900390626,1049.074422890625,53.097847900390626Z" fill="#0078D4" fill-opacity="1"/></g><g transform="matrix(-1,0,0,-1,2416.13232421875,1782.748046875)"><path d="M1213.599282109375,901.7480234375C1216.655152109375,901.7480234375,1219.132362109375,899.4257234375,1219.132362109375,896.5610234375C1219.132362109375,893.6963234375,1216.655152109375,891.3740234375,1213.599282109375,891.3740234375C1210.543412109375,891.3740234375,1208.066162109375,893.6963234375,1208.066162109375,896.5610234375C1208.066162109375,899.4257234375,1210.543412109375,901.7480234375,1213.599282109375,901.7480234375C1213.599282109375,901.7480234375,1213.599282109375,901.7480234375,1213.599282109375,901.7480234375Z" fill="#4F5B62" fill-opacity="1"/></g><g transform="matrix(-1,0,0,-1,1321.27294921875,1844.07421875)"><path d="M664.840584609375,922.372445375C662.357744609375,925.298449375,659.733040609375,928.889449375,660.938986609375,932.812909375C661.932114609375,936.005009375,664.627754609375,937.202009375,667.890904609375,937.002409375C669.806244609375,936.869509375,671.792474609375,936.404009375,673.353174609375,938.000009375C674.559074609375,939.197009375,673.778774609375,941.724009375,673.424074609375,943.053909375C672.856574609375,945.115409375,671.792474609375,947.110409375,672.005274609375,949.305009375C672.359974609375,952.297409375,674.913774609375,954.624909375,678.176974609375,953.960009375C679.524774609375,953.694009375,678.957274609375,951.765409375,677.609474609375,952.031509375C671.437774609375,953.361409375,675.694074609375,943.719009375,675.977774609375,941.391409375C676.190674609375,939.462909375,675.835974609375,937.335009375,674.275274609375,935.938409375C672.714674609375,934.542009375,670.799374609375,934.674909375,668.813094609375,934.874509375C665.691814609375,935.207009375,662.783394609375,934.275909375,662.641514609375,930.751439375C662.570584609375,928.091449375,664.556834609375,925.697449375,666.259344609375,923.702449375C667.252484609375,922.837946375,665.691844609375,921.374945375,664.840584609375,922.372445375C664.840584609375,922.372445375,664.840584609375,922.372445375,664.840584609375,922.372445375Z" fill="#0078D4" fill-opacity="1"/></g><g transform="matrix(-1,0,0,-1,1288.98046875,1845.561279296875)"><g><g><path d="M649.289094375,922.8620387484375C645.9550443749999,924.1920296484375,643.826928375,927.4505396484375,644.678176375,930.8420396484375C645.103798375,932.3715296484374,646.096924375,933.8345396484375,647.515674375,934.7655396484375C649.218154375,935.9625396484375,651.204424375,935.6965396484375,652.906924375,936.6939396484375C656.099134375,938.4895396484375,653.545334375,942.0140396484375,653.687204375,944.8070396484375C653.758144375,946.2035396484375,654.112854375,947.4669396484375,655.389734375,948.3315396484375C657.305034375,949.7280396484375,660.142534375,949.2625396484375,660.922834375,947.0015396484375C661.348434375,945.8045396484375,659.291334375,945.2725396484375,658.865634375,946.4695396484375C656.170034375,946.1370396484375,655.247834375,945.0065396484375,656.028134375,943.0779396484375C656.170034375,942.4130396484375,656.311934375,941.7480396484375,656.453734375,941.0829396484374C656.595634375,940.4180396484375,656.666534375,939.7530396484375,656.666534375,939.0879396484376C656.666534375,937.6915396484375,656.240934375,936.2285396484375,655.105934375,935.2310396484374C653.403454375,933.7680396484375,650.778784375,934.3665396484375,648.934404375,933.1695396484375C645.174736375,930.7090396484375,646.522544375,926.0540396484375,650.353154375,924.5245396484376C651.630024375,924.0590396484375,650.495034375,922.3965386484375,649.289094375,922.8620387484375C649.289094375,922.8620387484375,649.289094375,922.8620387484375,649.289094375,922.8620387484375Z" fill="#0078D4" fill-opacity="1"/></g></g></g><g transform="matrix(-1,6.094380466947769e-8,-6.094380466947769e-8,-1,251.38331333089207,411.84307095315387)"><g><g><path d="M128.450370390625,235.2789393066406C127.528190390625,233.74933930664062,127.670010390625,232.08693930664063,128.663130390625,230.62393930664064C130.223770390625,228.49593930664062,132.068210390625,228.96153930664062,134.480080390625,229.1609393066406C136.111650390625,229.29393930664062,137.601350390625,229.62643930664063,139.162050390625,228.7619393066406C141.928550390625,227.1659393066406,141.50285039062499,223.84093930664062,141.999550390625,221.31403930664064C143.134550390625,215.39548930664063,148.596650390625,220.78193930664062,152.285550390625,218.92003930664063C153.633250390625,218.25493930664064,154.129850390625,216.99153930664062,154.413650390625,215.66149930664062C154.910150390625,213.06799930664062,155.052050390625,205.35400830664062,160.372350390625,208.47949930664063C161.507350390625,209.14449930664063,162.64235039062498,207.4154993066406,161.436550390625,206.75050030664062C156.683650390625,204.02399930664063,152.852850390625,208.54599930664062,152.427250390625,212.73548930664063C152.143550390625,215.12947930664063,152.427350390625,217.45693930664063,149.022350390625,217.12443930664062C147.816350390625,216.99143930664061,146.610550390625,216.3929393066406,145.404550390625,216.25993930664063C143.489250390625,216.06043930664063,141.786650390625,216.5924393066406,140.722550390625,218.18853930664062C139.516650390625,220.0504393066406,139.942250390625,222.37793930664063,139.445750390625,224.37293930664063C138.381650390625,228.89493930664062,134.26727039062501,226.36793930664064,130.933200390625,226.89993930664062C126.464118390625,227.63143930664063,124.406870390625,232.68543930664063,126.535005390625,236.20993930664062C127.244390390625,237.40683930664062,129.088820390625,236.40943930664062,128.450370390625,235.2789393066406C128.450370390625,235.2789393066406,128.450370390625,235.2789393066406,128.450370390625,235.2789393066406Z" fill="#4F5B62" fill-opacity="1"/></g></g></g><g transform="matrix(-1,6.094380466947769e-8,-6.094380466947769e-8,-1,229.3833127823978,393.8430716235357)"><path d="M117.018390390625,221.60273930664061C115.812450390625,218.54373930664062,119.572090390625,215.1523393066406,122.835200390625,216.74833930664062C123.260820390625,216.9477393066406,123.828350390625,216.9477393066406,124.112100390625,216.61533930664064C125.74365039062499,214.95273930664064,126.169250390625,213.02423930664062,126.878550390625,210.89623930664064C128.155350390625,207.03923930664064,131.20575039062498,206.5072793066406,134.894550390625,205.44328930664062C138.512250390625,204.37927930664063,142.555650390625,201.5862593066406,141.066050390625,197.59625830664064C140.569550390625,196.39925730664064,138.512350390625,196.93126979664063,139.008850390625,198.12826930664062C141.066150390625,203.38177930664062,130.993050390625,203.78076930664062,128.013650390625,205.7092793066406C124.395850390625,208.10323930664063,125.459950390625,212.42573930664062,122.693360390625,215.21873930664063C123.118990390625,215.1523393066406,123.544550390625,215.08583930664062,123.970170390625,215.08583930664062C119.217390390625,212.75833930664064,113.187740390625,217.34673930664061,115.032106390625,222.20133930664062C115.457730390625,223.33173930664063,117.514940390625,222.86623930664064,117.018390390625,221.60273930664061C117.018390390625,221.60273930664061,117.018390390625,221.60273930664061,117.018390390625,221.60273930664061Z" fill="#4F5B62" fill-opacity="1"/></g></g></svg>