<svg xmlns="http://www.w3.org/2000/svg" xmlns:xlink="http://www.w3.org/1999/xlink" fill="none" version="1.1" width="31.989501953125" height="30.83331298828125" viewBox="0 0 31.989501953125 30.83331298828125"><g><g transform="matrix(-1,0,0,-1,61.66650390625,61.666664123535156)" style="opacity:0.699999988079071;"><ellipse cx="46.24991798400879" cy="46.24999809265137" rx="15.416666030883789" ry="15.416666030883789" fill="#1FDC8A" fill-opacity="1"/></g><g><path d="M31.606901953125,0.6822210500488282C32.081401953124995,1.1094080500488281,32.119901953125,1.8404950500488282,31.692701953125,2.3151450500488284C31.692701953125,2.3151450500488284,18.222301953124997,17.111095050048828,18.222301953124997,17.111095050048828C16.719801953125,18.780395050048828,14.176301953125,18.98839505004883,12.422561953125001,17.585495050048827C12.422561953125001,17.585495050048827,6.985989953125,13.236195050048828,6.985989953125,13.236195050048828C6.487344253125,12.837295050048828,6.406497953125,12.109695050048828,6.805414953125,11.610995050048828C7.204331953125,11.112395050048828,7.931951953125,11.031495050048829,8.430601953125,11.430495050048828C8.430601953125,11.430495050048828,13.867161953124999,15.779695050048828,13.867161953124999,15.779695050048828C14.664311953125,16.417495050048828,15.820491953125,16.32279505004883,16.503401953125,15.563995050048828C16.503401953125,15.563995050048828,29.973901953125,0.7681650500488282,29.973901953125,0.7681650500488282C30.401101953125,0.29351225004882814,31.132201953125,0.2550340500488281,31.606901953125,0.6822210500488282C31.606901953125,0.6822210500488282,31.606901953125,0.6822210500488282,31.606901953125,0.6822210500488282Z" fill-rule="evenodd" fill="#F3F3F3" fill-opacity="1" style="mix-blend-mode:luminosity"/><path d="M31.606901953125,0.6822210500488282C32.081401953124995,1.1094080500488281,32.119901953125,1.8404950500488282,31.692701953125,2.3151450500488284C31.692701953125,2.3151450500488284,18.222301953124997,17.111095050048828,18.222301953124997,17.111095050048828C16.719801953125,18.780395050048828,14.176301953125,18.98839505004883,12.422561953125001,17.585495050048827C12.422561953125001,17.585495050048827,6.985989953125,13.236195050048828,6.985989953125,13.236195050048828C6.487344253125,12.837295050048828,6.406497953125,12.109695050048828,6.805414953125,11.610995050048828C7.204331953125,11.112395050048828,7.931951953125,11.031495050048829,8.430601953125,11.430495050048828C8.430601953125,11.430495050048828,13.867161953124999,15.779695050048828,13.867161953124999,15.779695050048828C14.664311953125,16.417495050048828,15.820491953125,16.32279505004883,16.503401953125,15.563995050048828C16.503401953125,15.563995050048828,29.973901953125,0.7681650500488282,29.973901953125,0.7681650500488282C30.401101953125,0.29351225004882814,31.132201953125,0.2550340500488281,31.606901953125,0.6822210500488282C31.606901953125,0.6822210500488282,31.606901953125,0.6822210500488282,31.606901953125,0.6822210500488282Z" fill-rule="evenodd" fill="#F3F3F3" fill-opacity="0.5" style="mix-blend-mode:color"/></g></g></svg>