<?xml version="1.0" standalone="no"?><!DOCTYPE svg PUBLIC "-//W3C//DTD SVG 1.1//EN" "http://www.w3.org/Graphics/SVG/1.1/DTD/svg11.dtd"><svg t="1700986133499" class="icon" viewBox="0 0 1024 1024" version="1.1" xmlns="http://www.w3.org/2000/svg" p-id="1935" xmlns:xlink="http://www.w3.org/1999/xlink" width="200" height="200"><path d="M512.66 925.42L261.5 779.51V365.98l358.12-206.77 251.17 145.92v413.52z" fill="#C5B6DB" p-id="1936"></path><path d="M512.67 959.56L124.98 735.73V288.05L512.67 64.22l387.69 223.83v447.67L512.67 959.56zM184.1 701.59l328.56 189.69 328.56-189.69v-379.4L512.67 132.5 184.1 322.19v379.4z" fill="#29193D" p-id="1937"></path><path d="M409.3 321.67m-37.22 0a37.22 37.22 0 1 0 74.44 0 37.22 37.22 0 1 0-74.44 0Z" fill="#29193D" p-id="1938"></path><path d="M607.79 321.67m-37.22 0a37.22 37.22 0 1 0 74.44 0 37.22 37.22 0 1 0-74.44 0Z" fill="#29193D" p-id="1939"></path><path d="M334.86 613.2m-37.22 0a37.22 37.22 0 1 0 74.44 0 37.22 37.22 0 1 0-74.44 0Z" fill="#29193D" p-id="1940"></path><path d="M626.81 718.16m-37.22 0a37.22 37.22 0 1 0 74.44 0 37.22 37.22 0 1 0-74.44 0Z" fill="#29193D" p-id="1941"></path><path d="M701.24 613.2m-37.22 0a37.22 37.22 0 1 0 74.44 0 37.22 37.22 0 1 0-74.44 0Z" fill="#29193D" p-id="1942"></path><path d="M775.68 523.69m-37.22 0a37.22 37.22 0 1 0 74.44 0 37.22 37.22 0 1 0-74.44 0Z" fill="#29193D" p-id="1943"></path><path d="M512.67 558.32L139.14 330.36l30.81-50.47 342.72 209.16 342.72-209.16 30.81 50.47z" fill="#29193D" p-id="1944"></path><path d="M483.1 523.69h59.13v401.73H483.1z" fill="#29193D" p-id="1945"></path></svg>