<svg xmlns="http://www.w3.org/2000/svg" xmlns:xlink="http://www.w3.org/1999/xlink" fill="none" version="1.1" width="37" height="41" viewBox="0 0 37 41"><defs><linearGradient x1="0.2884615361690521" y1="0.2187499701976776" x2="0.9423076510429382" y2="0.8124999403953552" id="master_svg0_23_0053"><stop offset="0%" stop-color="#917FFB" stop-opacity="1"/><stop offset="100%" stop-color="#3F2DAF" stop-opacity="1"/></linearGradient><filter id="master_svg1_63_640/23_0066" filterUnits="objectBoundingBox" color-interpolation-filters="sRGB" x="0" y="0" width="20.021154403686523" height="19.941425323486328"><feFlood flood-opacity="0" result="BackgroundImageFix"/><feBlend mode="normal" in="SourceGraphic" in2="BackgroundImageFix" result="shape"/><feGaussianBlur in="BackgroundImage" stdDeviation="6.324226379394531"/><feComposite in2="SourceAlpha" operator="in" result="effect1_foregroundBlur"/><feBlend mode="normal" in="SourceGraphic" in2="effect1_foregroundBlur" result="shape"/></filter><linearGradient x1="4.564462141587455e-9" y1="0.1875" x2="0.75" y2="0.8124999403953552" id="master_svg2_23_0056"><stop offset="0%" stop-color="#FFFFFF" stop-opacity="1"/><stop offset="99.71504807472229%" stop-color="#FFFFFF" stop-opacity="0"/><stop offset="100%" stop-color="#FFFFFF" stop-opacity="0"/></linearGradient><filter id="master_svg3_63_640/23_0067" filterUnits="objectBoundingBox" color-interpolation-filters="sRGB" x="0" y="0" width="32.90034484863281" height="19.115442276000977"><feFlood flood-opacity="0" result="BackgroundImageFix"/><feBlend mode="normal" in="SourceGraphic" in2="BackgroundImageFix" result="shape"/><feGaussianBlur in="BackgroundImage" stdDeviation="6.928313255310059"/><feComposite in2="SourceAlpha" operator="in" result="effect1_foregroundBlur"/><feBlend mode="normal" in="SourceGraphic" in2="effect1_foregroundBlur" result="shape"/></filter><linearGradient x1="0.046882420778274536" y1="0.9110875725746155" x2="1.032930612564087" y2="0.12982523441314697" id="master_svg4_23_0048"><stop offset="0%" stop-color="#FFFFFF" stop-opacity="1"/><stop offset="100%" stop-color="#FFFFFF" stop-opacity="0"/></linearGradient></defs><g><g><path d="M1.83592,19.53691777770996C2.23021,17.51726777770996,2.42734,16.507467777709962,2.89781,15.719907777709961C3.52511,14.669827777709962,4.49957,13.86978077770996,5.65421,13.45689977770996C6.52018,13.147237777709961,7.55301,13.147237777709961,9.61873,13.147237777709961C9.61873,13.147237777709961,27.3813,13.147237777709961,27.3813,13.147237777709961C29.447,13.147237777709961,30.4798,13.147237777709961,31.3458,13.45689977770996C32.5004,13.86978077770996,33.4749,14.669827777709962,34.1022,15.719907777709961C34.5726,16.507467777709962,34.7698,17.51726777770996,35.1641,19.53691777770996C35.1641,19.53691777770996,35.1641,19.53691777770996,35.1641,19.53691777770996C35.7227,22.39850777770996,36.002,23.829237777709963,35.7107,24.97223777770996C35.3221,26.49623777770996,34.2701,27.76743777770996,32.8423,28.43823777770996C31.7715,28.94123777770996,30.3081,28.94123777770996,27.3813,28.94123777770996C27.3813,28.94123777770996,9.61873,28.94123777770996,9.61873,28.94123777770996C6.69192,28.94123777770996,5.22853,28.94123777770996,4.15771,28.43823777770996C2.72992,27.76743777770996,1.67786,26.49623777770996,1.28935,24.97223777770996C0.997967,23.829237777709963,1.27728,22.39850777770996,1.83592,19.53691777770996C1.83592,19.53691777770996,1.83592,19.53691777770996,1.83592,19.53691777770996C1.83592,19.53691777770996,1.83592,19.53691777770996,1.83592,19.53691777770996Z" fill="url(#master_svg0_23_0053)" fill-opacity="1"/></g><g filter="url(#master_svg1_63_640/23_0066)"><ellipse cx="18.727619171142578" cy="9.970712661743164" rx="10.010577201843262" ry="9.970712661743164" fill="#BFB5FF" fill-opacity="0.6000000238418579"/><ellipse cx="18.727619171142578" cy="9.970712661743164" rx="9.704629510641098" ry="9.664764970541" stroke="url(#master_svg2_23_0056)" fill-opacity="0" fill="none" stroke-width="0.6118953824043274"/></g><g transform="matrix(1,0,0,-1,0,82)" filter="url(#master_svg3_63_640/23_0067)"><path d="M2.0755228996276855,49.19232C2.0755228996276855,44.66783,5.758012899627685,41,10.300592899627686,41C10.300592899627686,41,26.750722899627686,41,26.750722899627686,41C31.293322899627686,41,34.97592289962768,44.66783,34.97592289962768,49.19232C34.97592289962768,49.19232,34.97592289962768,49.19232,34.97592289962768,49.19232C34.97592289962768,55.225,30.062622899627687,60.1154,24.005922899627684,60.1154C20.097622899627684,60.1154,16.953822899627685,60.1154,13.045522899627686,60.1154C6.9887428996276855,60.1154,2.0755228996276855,55.225,2.0755228996276855,49.19232C2.0755228996276855,49.19232,2.0755228996276855,49.19232,2.0755228996276855,49.19232C2.0755228996276855,49.19232,2.0755228996276855,49.19232,2.0755228996276855,49.19232Z" fill="#BFB5FF" fill-opacity="0.6000000238418579"/><path d="M2.0755228996276855,49.19232C2.0755228996276855,44.66783,5.758012899627685,41,10.300592899627686,41L26.750722899627686,41C31.293322899627686,41,34.97592289962768,44.66783,34.97592289962768,49.19232C34.97592289962768,55.225,30.062622899627687,60.1154,24.005922899627684,60.1154L13.045522899627686,60.1154C6.9887428996276855,60.1154,2.0755228996276855,55.225,2.0755228996276855,49.19232ZM2.6874178996276856,49.19232Q2.6874178996276856,51.2899,3.5010228996276855,53.2048Q4.287132899627686,55.055,5.720952899627686,56.4825Q7.154982899627686,57.9102,9.013772899627686,58.6931Q10.937912899627685,59.5035,13.045522899627686,59.5035L18.525722899627684,59.5035L24.005922899627684,59.5035Q26.113522899627686,59.5036,28.037622899627685,58.6931Q29.896422899627687,57.9102,31.330422899627685,56.4825Q32.764322899627686,55.055,33.55042289962769,53.2048Q34.364022899627685,51.2899,34.364022899627685,49.19232Q34.364022899627685,46.05313,32.135022899627685,43.83302Q29.905022899627685,41.611895,26.750722899627686,41.611895L10.300592899627686,41.611895Q7.146402899627685,41.611896,4.916402899627686,43.83302Q2.6874188996276853,46.05312,2.6874178996276856,49.19232Z" fill-rule="evenodd" fill="url(#master_svg4_23_0048)" fill-opacity="1"/></g></g></svg>